<svg xmlns="http://www.w3.org/2000/svg" width="308" height="88" viewBox="0 0 308 88" role="img" aria-labelledby="title">
  <title id="title">NövbəTime</title>
  <rect x="2" y="2" width="84" height="84" rx="20" fill="#fffdf8"/>
  <path d="M25 25c0-7.2 5.8-13 13-13h18c7.2 0 13 5.8 13 13v38c0 7.2-5.8 13-13 13H38c-7.2 0-13-5.8-13-13V25Z" fill="#00675f"/>
  <path d="M42 21v44" stroke="#fffdf8" stroke-width="6.5" stroke-linecap="round"/>
  <path d="M42 22l26 38" stroke="#fffdf8" stroke-width="6.5" stroke-linecap="round"/>
  <circle cx="58" cy="31" r="12.5" fill="#fffdf8"/>
  <path d="M58 23v9l7 4" fill="none" stroke="#00675f" stroke-width="3.8" stroke-linecap="round" stroke-linejoin="round"/>
  <circle cx="18" cy="69" r="3.5" fill="#00675f"/>
  <circle cx="27" cy="69" r="3.5" fill="#00675f"/>
  <circle cx="36" cy="69" r="3.5" fill="#00675f"/>
  <circle cx="27" cy="60" r="3.5" fill="#00675f"/>
  <circle cx="36" cy="60" r="3.5" fill="#00675f"/>
  <circle cx="36" cy="51" r="3.5" fill="#00675f"/>
  <text x="112" y="56" fill="#061815" font-family="-apple-system,BlinkMacSystemFont,'Segoe UI',Helvetica,Arial,sans-serif" font-size="32" font-weight="800">NövbəTime</text>
</svg>
